{
  "asset": {
    "version": "2.0",
    "generator": "THREE.GLTFExporter"
  },
  "scenes": [
    {
      "nodes": [
        0
      ]
    }
  ],
  "scene": 0,
  "nodes": [
    {
      "children": [
        8
      ],
      "matrix": [
        0.01,
        0,
        0,
        0,
        0,
        0.01,
        0,
        0,
        0,
        0,
        0.01,
        0,
        0,
        0,
        0,
        1
      ]
    },
    {
      "matrix": [
        -65.15583280329095,
        -44.52713576570852,
        -61.41703047373548,
        0,
        -32.401341378212436,
        89.53957451233619,
        -30.542088974418565,
        0,
        68.59205472129972,
        -0.000010718647090368766,
        -72.76763362396267,
        0,
        748.1131591796875,
        534.3665161132812,
        650.7639770507812,
        1
      ],
      "name": "Camera"
    },
    {
      "matrix": [
        -1422.8291738505675,
        9.898028069095597e-15,
        101.65808502143545,
        0,
        57.46848081344862,
        0.000060880904517717785,
        804.3416424872146,
        0,
        -0.0000019328137699127007,
        359.2292175292958,
        -0.000027052091562578887,
        0,
        -166.02523803710938,
        365.640869140625,
        2.4180448055267334,
        1
      ],
      "name": "Cube",
      "mesh": 0
    },
    {
      "matrix": [
        -29.08647719990343,
        -5.518906457566892,
        -95.51711910171436,
        0,
        56.63930913109447,
        79.46723428563203,
        -21.839123978419682,
        0,
        77.11008775993376,
        -60.45246356562044,
        -19.988346967737105,
        0,
        407.6245422363281,
        590.38623046875,
        -100.54539489746094,
        1
      ],
      "name": "Lamp"
    },
    {
      "matrix": [
        1,
        0,
        0,
        0,
        0,
        1,
        0,
        0,
        0,
        0,
        1,
        0,
        45,
        -28,
        0,
        1
      ],
      "name": "cottage_fbx",
      "children": [
        1,
        2,
        3
      ]
    },
    {
      "matrix": [
        0.5883484054145521,
        0.39223227027636803,
        -0.7071067811865475,
        0,
        -0.554700196225229,
        0.8320502943378437,
        0,
        0,
        0.588348405414552,
        0.392232270276368,
        0.7071067811865476,
        0,
        0,
        0,
        0,
        1
      ],
      "name": "Directional Light",
      "extensions": {
        "KHR_lights_punctual": {
          "light": 0
        }
      }
    },
    {
      "matrix": [
        1,
        0,
        0,
        0,
        0,
        1,
        -1.1368683772161603e-16,
        0,
        0,
        1.1368683772161603e-16,
        1,
        0,
        823.6826388978661,
        686.4021990815544,
        1200.2006413987926,
        1
      ],
      "camera": 0
    },
    {
      "matrix": [
        1,
        0,
        0,
        0,
        0,
        1,
        0,
        0,
        0,
        0,
        1,
        0,
        0,
        1,
        0,
        1
      ],
      "name": "Default Ambient Light"
    },
    {
      "name": "Scene 1",
      "children": [
        4,
        5,
        6,
        7
      ]
    }
  ],
  "bufferViews": [
    {
      "buffer": 0,
      "byteOffset": 0,
      "byteLength": 17208,
      "target": 34962,
      "byteStride": 12
    },
    {
      "buffer": 0,
      "byteOffset": 17208,
      "byteLength": 17208,
      "target": 34962,
      "byteStride": 12
    },
    {
      "buffer": 0,
      "byteOffset": 34416,
      "byteLength": 11472,
      "target": 34962,
      "byteStride": 8
    }
  ],
  "buffers": [
    {
      "byteLength": 45888,
      "uri": "data:application/octet-stream;base64,"
    }
  ],
  "accessors": [
    {
      "bufferView": 0,
      "componentType": 5126,
      "count": 1434,
      "max": [
        1.2217717170715332,
        1.165095329284668,
        3.084787368774414
      ],
      "min": [
        -1.148742437362671,
        -1.1487441062927246,
        -1.0000001192092896
      ],
      "type": "VEC3"
    },
    {
      "bufferView": 1,
      "componentType": 5126,
      "count": 1434,
      "max": [
        1,
        1,
        1
      ],
      "min": [
        -1,
        -1,
        -1
      ],
      "type": "VEC3"
    },
    {
      "bufferView": 2,
      "componentType": 5126,
      "count": 1434,
      "max": [
        0.9939420819282532,
        0.987237274646759
      ],
      "min": [
        0.007301792036741972,
        0.004985973238945007
      ],
      "type": "VEC2"
    }
  ],
  "meshes": [
    {
      "primitives": [
        {
          "mode": 4,
          "attributes": {
            "POSITION": 0,
            "NORMAL": 1,
            "TEXCOORD_0": 2
          },
          "extras": {
            "parameters": {
              "width": 2.370514154434204,
              "height": 2.3138394355773926,
              "depth": 4.084787487983704,
              "subdivisions": 0
            },
            "type": "NonParametricGeometry"
          }
        }
      ]
    }
  ],
  "extensions": {
    "KHR_lights_punctual": {
      "lights": [
        {
          "name": "Directional Light",
          "color": [
            1,
            1,
            1
          ],
          "intensity": 0.7,
          "type": "directional"
        }
      ]
    }
  },
  "cameras": [
    {
      "type": "orthographic",
      "orthographic": {
        "xmag": 54.91217592652441,
        "ymag": 26.512284939525067,
        "zfar": 100000,
        "znear": 0
      }
    }
  ],
  "extensionsUsed": [
    "KHR_lights_punctual"
  ]
}